# xmcd CD database file
#
# Track frame offsets:
#	187
#	17032
#	35892
#	52702
#
# Disc length: 952 seconds
#
# Revision: 0
# Processed by: cddbd v1.5PL3 Copyright (c) Steve Scherf et al.
# Submitted via: CDex 1.50beta8
#
DISCID=2903b604
DTITLE=ALI PROJECT - ピアニィ・ピンク
DYEAR=1997
DGENRE=Anime
TTITLE0=ピアニィ・ピンク
TTITLE1=月夜のピエレット
TTITLE2=ピアニィ・ピンク（オリジナル・カラオケ）
TTITLE3=月夜のピエレット（オリジナル・カラオケ）
EXTD=YEAR: 1997
EXTT0=
EXTT1=
EXTT2=
EXTT3=
PLAYORDER=
